# xmcd CD database file
#
# Track frame offsets:
#	150
#	34377
#	69880
#	105332
#	131835
#	173970
#
# Disc length: 2763 seconds
#
# Revision: 0
# Processed by: cddbd v1.5.2PL0 Copyright (c) Steve Scherf et al.
# Submitted via: CDex 1.70beta2
#
DISCID=4c0ac906
DTITLE=Makiko Hirohashi - 子育てママのリラックス
DYEAR=1998
DGENRE=New Age
TTITLE0=お疲れママのために
TTITLE1=故郷を思い出して～五木の子守唄
TTITLE2=心の扉
TTITLE3=旅愁
TTITLE4=ママの休日
TTITLE5=浜辺の歌
EXTD=YEAR: 1998
EXTT0=
EXTT1=
EXTT2=
EXTT3=
EXTT4=
EXTT5=
PLAYORDER=
